<svg width="44" height="66" viewBox="0 0 44 66" fill="none" xmlns="http://www.w3.org/2000/svg">
<path d="M0 8C0 3.58172 3.58172 0 8 0H36C40.4183 0 44 3.58172 44 8V58C44 62.4183 40.4183 66 36 66H8C3.58172 66 0 62.4183 0 58V8Z" fill="#D2D2D2" fill-opacity="0.25"/>
<path d="M15.886 11.2727H17.1985V17.4602C17.1985 18.0199 17.0877 18.4986 16.8661 18.8963C16.6474 19.294 16.3391 19.598 15.9414 19.8082C15.5437 20.0156 15.0778 20.1193 14.5437 20.1193C14.0522 20.1193 13.6104 20.0298 13.2184 19.8509C12.8292 19.6719 12.521 19.4119 12.2937 19.071C12.0692 18.7273 11.957 18.3097 11.957 17.8182H13.2653C13.2653 18.0597 13.3207 18.2685 13.4315 18.4446C13.5451 18.6207 13.6999 18.7585 13.896 18.858C14.0948 18.9545 14.3221 19.0028 14.5778 19.0028C14.8562 19.0028 15.092 18.9446 15.2852 18.8281C15.4812 18.7088 15.6303 18.5341 15.7326 18.304C15.8349 18.0739 15.886 17.7926 15.886 17.4602V11.2727ZM23.1591 17.2855V13.4545H24.4375V20H23.1847V18.8665H23.1165C22.9659 19.2159 22.7244 19.5071 22.392 19.7401C22.0625 19.9702 21.652 20.0852 21.1605 20.0852C20.7401 20.0852 20.3679 19.9929 20.044 19.8082C19.723 19.6207 19.4702 19.3438 19.2855 18.9773C19.1037 18.6108 19.0128 18.1577 19.0128 17.6179V13.4545H20.2869V17.4645C20.2869 17.9105 20.4105 18.2656 20.6577 18.5298C20.9048 18.794 21.2259 18.9261 21.6207 18.9261C21.8594 18.9261 22.0966 18.8665 22.3324 18.7472C22.571 18.6278 22.7685 18.4474 22.9247 18.206C23.0838 17.9645 23.1619 17.6577 23.1591 17.2855ZM27.4237 16.1136V20H26.1495V13.4545H27.3725V14.5199H27.4535C27.604 14.1733 27.8398 13.8949 28.1609 13.6847C28.4847 13.4744 28.8924 13.3693 29.3839 13.3693C29.8299 13.3693 30.2205 13.4631 30.5558 13.6506C30.891 13.8352 31.1509 14.1108 31.3356 14.4773C31.5202 14.8437 31.6126 15.2969 31.6126 15.8366V20H30.3384V15.9901C30.3384 15.5156 30.2148 15.1449 29.9677 14.8778C29.7205 14.608 29.381 14.473 28.9492 14.473C28.6538 14.473 28.391 14.5369 28.1609 14.6648C27.9336 14.7926 27.7532 14.9801 27.6197 15.2273C27.489 15.4716 27.4237 15.767 27.4237 16.1136Z" fill="#666666"/>
<path d="M17.709 34V50H13.8496V37.6094H13.7559L10.1777 39.7969V36.4531L14.123 34H17.709ZM27.6602 50.2187C26.7852 50.2187 25.9466 50.0781 25.1445 49.7969C24.3424 49.5104 23.6289 49.0573 23.0039 48.4375C22.3789 47.8125 21.8867 46.9948 21.5273 45.9844C21.168 44.9687 20.9909 43.7318 20.9961 42.2734C21.0013 40.9557 21.1628 39.7734 21.4805 38.7266C21.7982 37.6745 22.2513 36.7812 22.8398 36.0469C23.4336 35.3125 24.1419 34.7526 24.9648 34.3672C25.793 33.9766 26.7174 33.7812 27.7383 33.7812C28.8581 33.7812 29.8451 34 30.6992 34.4375C31.5586 34.8698 32.2461 35.4531 32.7617 36.1875C33.2773 36.9167 33.582 37.7292 33.6758 38.625H29.8711C29.7565 38.1198 29.5039 37.737 29.1133 37.4766C28.7279 37.2109 28.2695 37.0781 27.7383 37.0781C26.7591 37.0781 26.0273 37.5026 25.543 38.3516C25.0638 39.2005 24.819 40.3359 24.8086 41.7578H24.9102C25.1289 41.2786 25.444 40.8672 25.8555 40.5234C26.2669 40.1797 26.7383 39.9167 27.2695 39.7344C27.806 39.5469 28.3737 39.4531 28.9727 39.4531C29.931 39.4531 30.7773 39.6745 31.5117 40.1172C32.2461 40.5599 32.8216 41.1667 33.2383 41.9375C33.6549 42.7031 33.8607 43.5807 33.8555 44.5703C33.8607 45.6849 33.6003 46.6693 33.0742 47.5234C32.5482 48.3724 31.819 49.0339 30.8867 49.5078C29.9596 49.9818 28.8841 50.2187 27.6602 50.2187ZM27.6367 47.25C28.1107 47.25 28.5352 47.138 28.9102 46.9141C29.2852 46.6901 29.5794 46.3854 29.793 46C30.0065 45.6146 30.1107 45.1797 30.1055 44.6953C30.1107 44.2057 30.0065 43.7708 29.793 43.3906C29.5846 43.0104 29.293 42.7083 28.918 42.4844C28.5482 42.2604 28.1237 42.1484 27.6445 42.1484C27.2956 42.1484 26.9701 42.2135 26.668 42.3437C26.3659 42.474 26.1029 42.6562 25.8789 42.8906C25.6602 43.1198 25.4883 43.3906 25.3633 43.7031C25.2383 44.0104 25.1732 44.3437 25.168 44.7031C25.1732 45.1771 25.2826 45.6068 25.4961 45.9922C25.7096 46.3776 26.0013 46.6849 26.3711 46.9141C26.7409 47.138 27.1628 47.25 27.6367 47.25Z" fill="#191919"/>
</svg>
