<svg width="44" height="66" viewBox="0 0 44 66" fill="none" xmlns="http://www.w3.org/2000/svg">
<path d="M0 8C0 3.58172 3.58172 0 8 0H36C40.4183 0 44 3.58172 44 8V58C44 62.4183 40.4183 66 36 66H8C3.58172 66 0 62.4183 0 58V8Z" fill="#D2D2D2" fill-opacity="0.25"/>
<path d="M10.8768 11.2727H12.4748L15.2532 18.0568H15.3555L18.1339 11.2727H19.7319V20H18.479V13.6847H18.3981L15.8242 19.9872H14.7844L12.2106 13.6804H12.1296V20H10.8768V11.2727ZM23.4489 20.1449C23.0341 20.1449 22.6591 20.0682 22.3239 19.9148C21.9886 19.7585 21.723 19.5327 21.527 19.2372C21.3338 18.9418 21.2372 18.5795 21.2372 18.1506C21.2372 17.7812 21.3082 17.4773 21.4503 17.2386C21.5923 17 21.7841 16.8111 22.0256 16.6719C22.267 16.5327 22.5369 16.4276 22.8352 16.3565C23.1335 16.2855 23.4375 16.2315 23.7472 16.1946C24.1392 16.1491 24.4574 16.1122 24.7017 16.0838C24.946 16.0526 25.1236 16.0028 25.2344 15.9347C25.3452 15.8665 25.4006 15.7557 25.4006 15.6023V15.5724C25.4006 15.2003 25.2955 14.9119 25.0852 14.7074C24.8778 14.5028 24.5682 14.4006 24.1562 14.4006C23.7273 14.4006 23.3892 14.4957 23.142 14.6861C22.8977 14.8736 22.7287 15.0824 22.6349 15.3125L21.4375 15.0398C21.5795 14.642 21.7869 14.321 22.0597 14.0767C22.3352 13.8295 22.652 13.6506 23.0099 13.5398C23.3679 13.4261 23.7443 13.3693 24.1392 13.3693C24.4006 13.3693 24.6776 13.4006 24.9702 13.4631C25.2656 13.5227 25.5412 13.6335 25.7969 13.7955C26.0554 13.9574 26.267 14.1889 26.4318 14.4901C26.5966 14.7884 26.679 15.1761 26.679 15.6534V20H25.4347V19.1051H25.3835C25.3011 19.2699 25.1776 19.4318 25.0128 19.5909C24.848 19.75 24.6364 19.8821 24.3778 19.9872C24.1193 20.0923 23.8097 20.1449 23.4489 20.1449ZM23.7259 19.1222C24.0781 19.1222 24.3793 19.0526 24.6293 18.9134C24.8821 18.7741 25.0739 18.5923 25.2045 18.3679C25.3381 18.1406 25.4048 17.8977 25.4048 17.6392V16.7955C25.3594 16.8409 25.2713 16.8835 25.1406 16.9233C25.0128 16.9602 24.8665 16.9929 24.7017 17.0213C24.5369 17.0469 24.3764 17.071 24.2202 17.0938C24.0639 17.1136 23.9332 17.1307 23.8281 17.1449C23.581 17.1761 23.3551 17.2287 23.1506 17.3026C22.9489 17.3764 22.7869 17.483 22.6648 17.6222C22.5455 17.7585 22.4858 17.9403 22.4858 18.1676C22.4858 18.483 22.6023 18.7216 22.8352 18.8835C23.0682 19.0426 23.3651 19.1222 23.7259 19.1222ZM28.9471 22.4545C28.7567 22.4545 28.5835 22.4389 28.4272 22.4077C28.271 22.3793 28.1545 22.348 28.0778 22.3139L28.3846 21.2699C28.6175 21.3324 28.8249 21.3594 29.0067 21.3509C29.1886 21.3423 29.3491 21.2741 29.4883 21.1463C29.6303 21.0185 29.7553 20.8097 29.8633 20.5199L30.021 20.0852L27.6261 13.4545H28.9897L30.6474 18.5341H30.7156L32.3732 13.4545H33.7411L31.0437 20.8736C30.9187 21.2145 30.7596 21.5028 30.5664 21.7386C30.3732 21.9773 30.1431 22.1563 29.8761 22.2756C29.609 22.3949 29.2994 22.4545 28.9471 22.4545Z" fill="#666666"/>
<path d="M17.8809 34V50H14.0215V37.6094H13.9277L10.3496 39.7969V36.4531L14.2949 34H17.8809ZM27.543 50.2187C26.3763 50.2187 25.3398 50.0078 24.4336 49.5859C23.5273 49.1641 22.8112 48.5833 22.2852 47.8437C21.7643 47.1042 21.4935 46.2552 21.4727 45.2969H25.2227C25.2539 45.8854 25.4935 46.3594 25.9414 46.7187C26.3893 47.0729 26.9232 47.25 27.543 47.25C28.0273 47.25 28.457 47.1432 28.832 46.9297C29.207 46.7161 29.5013 46.4167 29.7148 46.0312C29.9284 45.6406 30.0326 45.1927 30.0273 44.6875C30.0326 44.1719 29.9258 43.7214 29.707 43.3359C29.4935 42.9505 29.1966 42.651 28.8164 42.4375C28.4414 42.2187 28.0091 42.1094 27.5195 42.1094C27.056 42.1042 26.6159 42.2057 26.1992 42.4141C25.7878 42.6224 25.4753 42.9062 25.2617 43.2656L21.8477 42.625L22.543 34H32.8086V37.1172H25.7227L25.3555 40.8906H25.4492C25.7148 40.4479 26.1419 40.0833 26.7305 39.7969C27.3242 39.5052 27.9987 39.3594 28.7539 39.3594C29.7122 39.3594 30.5664 39.5833 31.3164 40.0312C32.0716 40.474 32.6654 41.0885 33.0977 41.875C33.5352 42.6615 33.7539 43.5625 33.7539 44.5781C33.7539 45.6771 33.4935 46.651 32.9727 47.5C32.457 48.349 31.7331 49.0156 30.8008 49.5C29.8737 49.9792 28.7878 50.2187 27.543 50.2187Z" fill="#191919"/>
</svg>
