<svg width="16" height="17" viewBox="0 0 16 17" fill="none" xmlns="http://www.w3.org/2000/svg">
<path d="M14.5833 0H1.41667C1.04094 0 0.680609 0.152227 0.414932 0.423193C0.149255 0.69416 0 1.06167 0 1.44487V5.62736C0.000351342 5.90501 0.0791352 6.17669 0.226924 6.40987C0.374713 6.64305 0.585247 6.82786 0.833333 6.94219L6.05 9.36023C5.27758 9.80107 4.67035 10.4908 4.32341 11.3213C3.97647 12.1518 3.90942 13.0762 4.13277 13.9498C4.35612 14.8233 4.85724 15.5966 5.55765 16.1486C6.25807 16.7006 7.1182 17 8.00333 17C8.88847 17 9.7486 16.7006 10.449 16.1486C11.1494 15.5966 11.6505 14.8233 11.8739 13.9498C12.0972 13.0762 12.0302 12.1518 11.6833 11.3213C11.3363 10.4908 10.7291 9.80107 9.95667 9.36023L15.1667 6.94219C15.4148 6.82786 15.6253 6.64305 15.7731 6.40987C15.9209 6.17669 15.9996 5.90501 16 5.62736V1.44487C16 1.06167 15.8507 0.69416 15.5851 0.423193C15.3194 0.152227 14.9591 0 14.5833 0ZM10.6667 1.35988V7.53629L8 8.77208L5.33333 7.53629V1.35988H10.6667ZM1.33333 5.62736V1.44487C1.33333 1.42233 1.34211 1.40071 1.35774 1.38477C1.37337 1.36884 1.39457 1.35988 1.41667 1.35988H4V6.91754L1.3825 5.7047C1.36788 5.698 1.35546 5.68713 1.34674 5.67342C1.33802 5.6597 1.33337 5.64371 1.33333 5.62736ZM8 15.6386C7.47258 15.6386 6.95701 15.4791 6.51848 15.1803C6.07995 14.8814 5.73815 14.4566 5.53632 13.9597C5.33449 13.4627 5.28168 12.9158 5.38457 12.3883C5.48747 11.8607 5.74144 11.3761 6.11438 10.9957C6.48732 10.6153 6.96248 10.3563 7.47976 10.2514C7.99704 10.1464 8.53322 10.2003 9.02049 10.4061C9.50776 10.612 9.92424 10.9606 10.2173 11.4078C10.5103 11.8551 10.6667 12.3809 10.6667 12.9189C10.6667 13.6402 10.3857 14.332 9.88562 14.842C9.38552 15.3521 8.70724 15.6386 8 15.6386ZM14.6667 5.62736C14.6666 5.64371 14.662 5.6597 14.6533 5.67342C14.6445 5.68713 14.6321 5.698 14.6175 5.7047L12 6.91754V1.35988H14.5833C14.6054 1.35988 14.6266 1.36884 14.6423 1.38477C14.6579 1.40071 14.6667 1.42233 14.6667 1.44487V5.62736Z" fill="#525256"/>
</svg>
